<?xml version="1.0" standalone="no"?>
<!DOCTYPE svg PUBLIC "-//W3C//DTD SVG 20010904//EN"
 "http://www.w3.org/TR/2001/REC-SVG-20010904/DTD/svg10.dtd">
<svg version="1.0" xmlns="http://www.w3.org/2000/svg"
 width="512.000000pt" height="512.000000pt" viewBox="0 0 512.000000 512.000000"
 preserveAspectRatio="xMidYMid meet">

<g transform="translate(0.000000,512.000000) scale(0.100000,-0.100000)"
fill="#000000" stroke="none">
<path d="M2579 5111 c-37 -12 -71 -31 -97 -54 -12 -11 -331 -498 -708 -1083
l-686 -1062 -56 -4 c-74 -5 -153 -43 -220 -103 -52 -47 -56 -48 -110 -46 -73
2 -160 -14 -184 -36 -26 -24 -39 -83 -47 -212 l-6 -115 -68 -11 c-37 -6 -75
-18 -83 -27 -27 -27 -46 -117 -51 -250 l-6 -127 -39 -6 c-21 -4 -52 -18 -67
-31 -25 -20 -31 -38 -46 -116 -36 -195 -15 -444 51 -630 111 -308 352 -576
649 -718 240 -116 482 -156 626 -105 41 15 48 15 99 -2 66 -21 215 -23 305 -4
224 49 439 158 623 319 35 30 64 53 66 51 2 -2 13 -33 24 -67 46 -138 154
-283 262 -352 91 -59 141 -68 365 -66 l201 2 64 31 c36 16 76 39 89 50 l24 20
76 -38 c286 -143 631 -51 810 216 71 107 103 211 105 340 1 148 -38 274 -120
386 l-36 49 219 0 c120 0 235 5 255 10 54 15 118 68 144 120 29 55 32 154 8
203 -40 79 -2181 3383 -2211 3412 -56 54 -151 78 -224 56z m114 -105 c44 -18
51 -28 207 -268 l138 -213 -193 -3 c-107 -1 -284 -1 -394 0 l-201 3 150 231
c116 179 157 235 182 248 41 19 69 20 111 2z m545 -791 c73 -113 132 -207 132
-210 0 -3 -328 -5 -730 -5 l-729 0 135 210 136 210 462 0 462 0 132 -205z
m333 -513 l126 -197 -529 -3 c-291 -1 -765 -1 -1053 0 l-524 3 127 197 127
198 800 -1 800 0 126 -197z m324 -504 c72 -111 132 -205 133 -210 2 -4 -532
-8 -1186 -8 -1183 0 -1189 0 -1248 21 -88 31 -182 30 -264 -5 -36 -15 -72 -30
-80 -33 -12 -5 -13 -4 -4 8 6 8 71 107 144 222 l134 207 1120 0 1121 0 130
-202z m-2322 -297 c31 -11 116 -32 188 -46 143 -28 206 -55 257 -107 l32 -34
-61 -45 c-33 -24 -74 -54 -91 -66 -17 -13 -40 -23 -52 -23 -39 0 -141 -57
-188 -105 -26 -26 -65 -82 -87 -124 -22 -42 -51 -87 -65 -100 l-26 -25 -31 30
c-17 16 -46 59 -65 96 -66 125 -144 191 -261 224 -45 12 -78 30 -118 64 -31
26 -72 56 -91 66 -19 10 -34 21 -34 25 0 3 18 18 40 33 44 29 86 40 209 55 65
8 106 21 180 56 111 52 171 58 264 26z m2653 -216 c68 -104 123 -193 124 -197
0 -5 -137 -8 -305 -8 l-305 0 -16 -25 c-15 -23 -15 -27 0 -50 l16 -25 342 -2
342 -3 133 -205 132 -205 -397 -2 c-391 -3 -397 -3 -414 -24 -22 -26 -23 -43
-2 -63 14 -14 68 -16 447 -16 l432 0 88 -137 c93 -145 102 -175 72 -233 -8
-15 -27 -38 -41 -49 -26 -20 -38 -21 -315 -21 l-287 0 -69 35 c-97 49 -181 69
-293 69 -100 -1 -194 -20 -263 -55 -38 -20 -38 -20 -81 0 -78 38 -143 45 -237
27 -46 -9 -92 -19 -101 -22 -14 -4 -18 1 -18 23 0 42 31 92 75 122 28 19 41
35 43 55 7 58 -47 74 -110 31 l-36 -24 -26 53 c-29 60 -79 100 -141 115 -30 7
-33 9 -15 10 33 1 50 18 50 51 0 44 -16 50 -129 50 -58 0 -130 5 -162 12 l-56
11 -6 121 c-7 145 -27 234 -57 258 -21 17 -10 18 302 18 316 0 325 1 344 21
17 19 17 23 3 47 l-15 27 -390 3 -390 2 -12 97 c-7 54 -20 111 -30 127 -24 42
-88 58 -207 53 l-90 -3 -62 63 -63 63 1036 -2 1036 -3 124 -190z m-3472 -35
c75 -12 128 -38 199 -98 44 -37 75 -54 130 -70 109 -32 158 -75 216 -190 17
-34 48 -80 67 -102 l35 -39 -40 -67 c-23 -37 -41 -74 -41 -81 0 -20 -6 -16
-57 39 -64 69 -122 104 -220 134 -66 20 -94 35 -151 83 -39 32 -94 70 -124 84
-49 23 -79 32 -172 52 l-29 6 6 107 c3 59 8 115 12 124 6 15 28 22 90 26 11 1
46 -2 79 -8z m1612 -3 c9 -9 23 -183 18 -216 -6 -37 -10 -41 -34 -41 -81 0
-210 -62 -303 -146 -36 -32 -67 -49 -120 -65 -40 -12 -94 -33 -122 -47 -72
-36 -155 -127 -201 -219 -38 -77 -106 -163 -128 -163 -7 0 -25 14 -42 31 -27
28 -29 36 -29 102 1 95 30 150 139 266 56 58 96 112 120 158 41 82 109 148
170 164 88 24 123 40 171 82 93 82 172 109 289 101 39 -2 71 -6 72 -7z m-1706
-374 c66 -18 107 -42 174 -101 52 -47 137 -92 172 -92 39 0 143 -60 183 -106
22 -25 58 -82 81 -127 23 -45 62 -102 86 -127 24 -25 44 -49 44 -53 0 -4 -15
-28 -34 -54 -18 -27 -41 -63 -51 -82 l-17 -35 -22 30 c-71 99 -169 172 -265
200 -116 34 -144 48 -208 104 -36 32 -92 73 -124 90 -71 37 -194 70 -266 70
l-53 0 0 78 c0 75 16 201 26 212 10 9 118 18 169 13 28 -2 75 -11 105 -20z
m1910 -3 c6 -8 10 -19 10 -25 0 -5 5 -50 10 -100 5 -49 7 -105 4 -122 -6 -32
-8 -33 -58 -33 -128 -1 -260 -54 -381 -155 -84 -71 -100 -79 -174 -96 -148
-33 -265 -135 -355 -308 -42 -80 -72 -123 -104 -152 l-46 -40 -48 48 c-26 26
-50 54 -53 63 -8 27 20 116 56 175 19 32 75 99 125 149 70 72 99 110 129 172
22 43 60 101 85 128 45 49 145 106 185 106 28 0 117 43 135 65 30 37 131 104
182 121 100 33 278 35 298 4z m-2017 -411 c71 -24 139 -65 182 -109 49 -51
115 -87 200 -110 44 -12 99 -32 121 -45 64 -37 137 -124 189 -227 29 -56 70
-115 102 -150 l54 -56 -36 -48 c-71 -93 -124 -230 -125 -322 l0 -32 -36 15
c-60 25 -94 55 -151 134 -31 42 -77 99 -103 126 l-47 50 10 79 c13 98 -3 248
-29 277 -24 26 -60 24 -79 -4 -12 -19 -13 -34 -5 -77 11 -57 14 -210 4 -210
-3 0 -33 14 -65 32 -122 65 -226 212 -266 377 -12 53 -24 78 -40 88 -28 19
-61 9 -73 -22 -9 -23 6 -107 30 -169 l11 -29 -50 7 c-38 5 -53 3 -65 -9 -20
-21 -21 -59 -1 -79 18 -17 94 -31 133 -23 24 5 31 0 56 -39 49 -78 140 -158
237 -209 96 -51 186 -122 172 -136 -5 -5 -44 -14 -88 -20 -107 -15 -143 -50
-98 -95 14 -14 30 -16 97 -11 45 3 101 12 125 21 43 16 44 16 60 -6 60 -87
167 -161 251 -174 30 -5 38 -12 53 -49 10 -24 34 -65 53 -92 l34 -48 -87 -3
c-143 -4 -349 57 -513 153 -345 202 -559 551 -577 940 -6 117 9 275 27 305 21
34 229 34 333 -1z m2169 16 c9 -3 19 -16 22 -28 14 -54 28 -248 22 -308 -7
-61 -9 -66 -42 -84 -52 -28 -129 -117 -164 -189 -41 -87 -62 -183 -64 -299
l-2 -97 -69 -70 c-134 -135 -295 -233 -485 -294 -268 -87 -432 -63 -525 77
-67 101 -82 207 -44 319 30 89 79 160 194 278 84 86 110 121 148 195 78 156
159 227 301 265 99 26 116 36 196 105 123 107 237 148 400 141 52 -2 102 -7
112 -11z m208 -25 c-19 -5 -45 -11 -57 -15 -17 -6 -23 -3 -23 9 0 13 11 16 58
15 52 -1 54 -2 22 -9z m83 -111 c31 -16 57 -50 57 -76 0 -20 -5 -23 -36 -23
-28 0 -44 8 -70 34 -44 44 -46 76 -3 76 17 0 40 -5 52 -11z m-21 -198 c34 -7
64 -8 85 -2 l31 9 -5 -36 c-3 -21 -6 -38 -7 -39 -1 -1 -41 7 -91 18 -49 10
-100 19 -112 19 -21 0 -23 5 -23 51 l0 51 34 -30 c22 -19 54 -34 88 -41z
m1014 -132 c196 -36 368 -196 419 -390 44 -162 -5 -359 -119 -486 -103 -114
-237 -174 -389 -174 -286 0 -510 204 -534 486 -28 341 286 626 623 564z"/>
<path d="M3568 2608 c-8 -7 -30 -39 -48 -71 -33 -59 -132 -190 -163 -215 -14
-12 -23 -11 -62 3 -136 52 -275 -47 -275 -195 1 -172 205 -263 336 -148 l34
30 0 -34 c0 -90 83 -175 183 -185 143 -15 255 117 217 255 -11 44 -68 117 -99
127 -12 4 -19 25 -28 89 -6 46 -22 111 -36 145 l-24 60 23 41 c29 50 30 71 6
93 -22 20 -43 22 -64 5z m-19 -298 c19 -87 15 -107 -21 -119 -17 -6 -46 -22
-64 -36 l-32 -24 -11 45 -12 45 56 62 c30 34 55 65 55 70 0 4 4 7 9 7 5 0 14
-23 20 -50z m-278 -90 c30 -17 52 -68 45 -106 -18 -93 -156 -100 -186 -10 -27
83 63 157 141 116z m390 -159 c21 -22 29 -39 29 -66 0 -27 -8 -44 -29 -66 -39
-38 -87 -39 -130 -3 -26 21 -31 33 -31 69 0 89 97 129 161 66z"/>
<path d="M2430 1642 c-12 -10 -28 -48 -40 -95 -28 -110 -83 -210 -155 -282
-57 -57 -160 -124 -172 -111 -13 13 -15 110 -3 187 11 77 10 83 -8 102 -28 28
-66 16 -83 -25 -9 -22 -14 -86 -14 -191 -1 -149 -2 -158 -23 -172 -11 -9 -57
-64 -101 -123 -90 -121 -123 -147 -217 -173 -36 -10 -72 -24 -80 -30 -20 -16
-17 -53 5 -73 17 -16 23 -16 86 -1 94 21 158 59 224 131 l56 62 70 -18 c127
-34 205 -23 205 29 0 31 -32 47 -115 60 -44 6 -83 15 -88 20 -14 14 76 85 174
137 99 52 194 137 239 212 23 40 27 42 60 37 47 -8 121 9 137 31 7 10 10 27 7
38 -10 35 -32 45 -85 39 l-49 -6 14 34 c24 59 38 146 27 167 -14 27 -47 33
-71 14z"/>
<path d="M3694 1316 c-159 -80 -264 -251 -264 -431 0 -33 5 -77 10 -97 13 -44
61 -88 98 -88 42 0 310 157 333 194 17 27 19 53 19 208 l0 178 -27 30 c-43 47
-84 49 -169 6z"/>
<path d="M3988 1334 c-51 -27 -58 -57 -58 -236 0 -217 -5 -207 181 -314 79
-46 154 -84 167 -84 38 0 83 29 98 65 21 51 18 189 -6 266 -38 125 -124 225
-244 284 -76 38 -98 41 -138 19z"/>
<path d="M3745 755 c-71 -41 -140 -86 -152 -100 -25 -29 -30 -77 -10 -112 30
-54 156 -117 267 -133 126 -19 282 26 365 104 30 29 35 40 35 78 0 60 -17 76
-177 166 -91 51 -138 72 -163 72 -25 0 -71 -21 -165 -75z"/>
</g>
</svg>
